<svg xmlns="http://www.w3.org/2000/svg" width="512" height="512" viewBox="0 0 512 512">
  <defs>
    <linearGradient id="bg" x1="0" y1="0" x2="1" y2="1">
      <stop offset="0" stop-color="#4f46e5"/>
      <stop offset="1" stop-color="#3b82f6"/>
    </linearGradient>
  </defs>

  <!-- App background -->
  <rect x="16" y="16" width="480" height="480" rx="104" fill="url(#bg)"/>

  <!-- Document page -->
  <g>
    <path d="M168 108 h132 l64 64 v232 a16 16 0 0 1 -16 16 H168 a16 16 0 0 1 -16 -16 V124 a16 16 0 0 1 16 -16 z"
          fill="#ffffff"/>
    <!-- folded corner -->
    <path d="M300 108 l64 64 h-64 z" fill="#c7d2fe"/>
    <!-- text lines -->
    <rect x="188" y="196" width="136" height="16" rx="8" fill="#cbd5e1"/>
    <rect x="188" y="236" width="136" height="16" rx="8" fill="#cbd5e1"/>
    <rect x="188" y="276" width="96"  height="16" rx="8" fill="#cbd5e1"/>
  </g>

  <!-- Signature / verified seal -->
  <g>
    <circle cx="336" cy="336" r="72" fill="#22c55e" stroke="#ffffff" stroke-width="10"/>
    <path d="M306 338 l20 20 l40 -46" fill="none" stroke="#ffffff" stroke-width="16"
          stroke-linecap="round" stroke-linejoin="round"/>
  </g>
</svg>
